<svg id="visual" viewBox="0 0 900 600" width="900" height="600" xmlns="http://www.w3.org/2000/svg" xmlns:xlink="http://www.w3.org/1999/xlink" version="1.1"><rect x="0" y="0" width="900" height="600" fill="#1f2634"></rect><defs><linearGradient id="grad1_0" x1="33.3%" y1="0%" x2="100%" y2="100%"><stop offset="20%" stop-color="#1f2634" stop-opacity="1"></stop><stop offset="80%" stop-color="#1f2634" stop-opacity="1"></stop></linearGradient></defs><defs><linearGradient id="grad2_0" x1="0%" y1="0%" x2="66.7%" y2="100%"><stop offset="20%" stop-color="#1f2634" stop-opacity="1"></stop><stop offset="80%" stop-color="#1f2634" stop-opacity="1"></stop></linearGradient></defs><g transform="translate(900, 0)"><path d="M0 243.4C-21.3 226.3 -42.5 209.2 -65.5 201.6C-88.5 194 -113.2 195.9 -137 188.5C-160.8 181.1 -183.7 164.3 -196.9 143.1C-210.1 121.8 -213.6 96 -219.7 71.4C-225.8 46.8 -234.6 23.4 -243.4 0L0 0Z" fill="#8461c0"></path></g><g transform="translate(0, 600)"><path d="M0 -243.4C28.1 -244.5 56.2 -245.7 75.2 -231.5C94.2 -217.3 104.2 -187.7 125.2 -172.3C146.2 -156.9 178.4 -155.8 192.5 -139.9C206.7 -124 202.8 -93.4 208.3 -67.7C213.7 -41.9 228.6 -21 243.4 0L0 0Z" fill="#8461c0"></path></g></svg>