<svg id="visual" viewBox="0 0 600 400" width="600" height="400" xmlns="http://www.w3.org/2000/svg" xmlns:xlink="http://www.w3.org/1999/xlink" version="1.1"><rect x="0" y="0" width="600" height="400" fill="#1f2634"></rect><defs><linearGradient id="grad1_0" x1="33.3%" y1="0%" x2="100%" y2="100%"><stop offset="20%" stop-color="#1f2634" stop-opacity="1"></stop><stop offset="80%" stop-color="#1f2634" stop-opacity="1"></stop></linearGradient></defs><defs><linearGradient id="grad2_0" x1="0%" y1="0%" x2="66.7%" y2="100%"><stop offset="20%" stop-color="#1f2634" stop-opacity="1"></stop><stop offset="80%" stop-color="#1f2634" stop-opacity="1"></stop></linearGradient></defs><g transform="translate(600, 0)"><path d="M0 198.3C-27.9 197.4 -55.7 196.5 -75.9 183.2C-96 169.9 -108.5 144.1 -124.5 124.5C-140.4 104.8 -159.9 91.3 -172.8 71.6C-185.7 51.8 -192 25.9 -198.3 0L0 0Z" fill="#e96e53"></path></g><g transform="translate(0, 400)"><path d="M0 -198.3C22.3 -184.9 44.7 -171.6 67 -161.7C89.2 -151.8 111.4 -145.4 132.2 -132.2C153 -119 172.4 -99.1 183.2 -75.9C194 -52.7 196.1 -26.4 198.3 0L0 0Z" fill="#e96e53"></path></g></svg>